<svg xmlns="http://www.w3.org/2000/svg" viewBox="0 0 24 24" shape-rendering="crispEdges"><title>Duelist #62 — bruiser of reef</title><rect width="24" height="24" fill="#081418"/><path fill="#2d6b7a" d="M7 2h10v1h-10zM5 10h14v1h-14zM5 11h14v1h-14zM4 12h16v1h-16zM4 13h16v1h-16zM5 14h14v1h-14zM4 15h16v1h-16zM5 17h14v1h-14zM9 18h2v1h-2zM13 18h2v1h-2zM9 19h2v1h-2zM13 19h2v1h-2zM9 20h2v1h-2zM13 20h2v1h-2z"/><path fill="#6cd9c9" d="M9 3h6v1h-6zM7 4h10v1h-10zM7 5h10v1h-10zM7 6h2v1h-2zM10 6h4v1h-4zM15 6h2v1h-2zM7 7h10v1h-10zM7 8h6v1h-6zM14 8h3v1h-3zM9 9h6v1h-6zM3 11h1v1h-1zM20 11h1v1h-1zM3 12h1v1h-1zM20 12h1v1h-1zM3 13h1v1h-1zM20 13h1v1h-1zM3 14h1v1h-1zM20 14h1v1h-1zM3 15h1v1h-1zM20 15h1v1h-1zM3 16h1v1h-1zM20 16h1v1h-1z"/><path fill="#e061ff" d="M9 6h1v1h-1zM14 6h1v1h-1z"/><path fill="#ffb461" d="M13 8h1v1h-1zM4 10h1v1h-1zM19 10h1v1h-1zM4 11h1v1h-1zM19 11h1v1h-1zM5 16h14v1h-14zM8 21h3v1h-3zM13 21h3v1h-3z"/></svg>