<svg xmlns="http://www.w3.org/2000/svg" viewBox="0 0 24 24" shape-rendering="crispEdges"><title>Duelist #24 — ronin of reef</title><rect width="24" height="24" fill="#081418"/><path fill="#ffb461" d="M11 0h2v1h-2zM8 1h8v1h-8zM8 10h1v1h-1zM15 10h1v1h-1zM8 11h1v1h-1zM15 11h1v1h-1zM9 14h6v1h-6zM8 21h3v1h-3zM13 21h3v1h-3z"/><path fill="#2d6b7a" d="M8 2h8v1h-8zM9 10h6v1h-6zM9 11h6v1h-6zM8 12h8v1h-8zM8 13h8v1h-8zM8 14h1v1h-1zM15 14h1v1h-1zM8 15h8v1h-8zM9 16h2v1h-2zM13 16h2v1h-2zM9 17h2v1h-2zM13 17h2v1h-2zM9 18h2v1h-2zM13 18h2v1h-2zM9 19h2v1h-2zM13 19h2v1h-2zM9 20h2v1h-2zM13 20h2v1h-2z"/><path fill="#6cd9c9" d="M11 3h2v1h-2zM9 4h6v1h-6zM9 5h1v1h-1zM11 5h2v1h-2zM14 5h1v1h-1zM9 6h6v1h-6zM9 7h6v1h-6zM9 8h6v1h-6zM11 9h2v1h-2zM7 11h1v1h-1zM16 11h1v1h-1zM7 12h1v1h-1zM16 12h1v1h-1zM7 13h1v1h-1zM16 13h1v1h-1zM7 14h1v1h-1zM16 14h1v1h-1z"/><path fill="#e061ff" d="M10 5h1v1h-1zM13 5h1v1h-1z"/></svg>