<svg xmlns="http://www.w3.org/2000/svg" viewBox="0 0 24 24" shape-rendering="crispEdges"><title>Duelist #100 — berserk of mono</title><rect width="24" height="24" fill="#0d0d0f"/><path fill="#4a4a55" d="M9 2h6v1h-6zM6 9h12v1h-12zM6 10h12v1h-12zM6 11h12v1h-12zM7 13h10v1h-10zM6 14h12v1h-12zM9 15h2v1h-2zM13 15h2v1h-2zM9 16h2v1h-2zM13 16h2v1h-2zM9 17h2v1h-2zM13 17h2v1h-2z"/><path fill="#cfcfd6" d="M9 3h6v1h-6zM9 4h6v1h-6zM9 5h6v1h-6zM9 6h1v1h-1zM11 6h2v1h-2zM14 6h1v1h-1zM9 7h1v1h-1zM11 7h2v1h-2zM14 7h1v1h-1zM9 8h6v1h-6zM5 10h1v1h-1zM18 10h1v1h-1zM5 11h1v1h-1zM18 11h1v1h-1zM5 12h1v1h-1zM18 12h1v1h-1zM5 13h1v1h-1zM18 13h1v1h-1z"/><path fill="#ffd561" d="M10 6h1v1h-1zM13 6h1v1h-1zM10 7h1v1h-1zM13 7h1v1h-1z"/><path fill="#ffffff" d="M7 12h10v1h-10zM8 18h3v1h-3zM13 18h3v1h-3z"/></svg>