<svg xmlns="http://www.w3.org/2000/svg" viewBox="0 0 45 45" width="180" height="180" role="img" aria-label="black queen" style="--xcp-detail:#f2ede3;--xcp-spec:#8e8478" fill="#191512" stroke="#0d0b09"><g stroke-width="0.85" stroke-linejoin="round"><path class="xb" d="M7.3 13.4a1.9 1.9 0 1 0 3.8 0a1.9 1.9 0 1 0 -3.8 0z"/><path class="xb" d="M13.9 10.4a1.9 1.9 0 1 0 3.8 0a1.9 1.9 0 1 0 -3.8 0z"/><path class="xb" d="M20.4 9a2.1 2.1 0 1 0 4.2 0a2.1 2.1 0 1 0 -4.2 0z"/><path class="xb" d="M27.3 10.4a1.9 1.9 0 1 0 3.8 0a1.9 1.9 0 1 0 -3.8 0z"/><path class="xb" d="M33.9 13.4a1.9 1.9 0 1 0 3.8 0a1.9 1.9 0 1 0 -3.8 0z"/><path class="xb" d="M9.6 16.4 13 27.4h19l3.4-11-5.5 5.4-3.4-8.2-4 8.6-4-8.6-3.4 8.2z"/><path class="xb" d="M14 28h17c.3 2.2 1.2 3.9 2.6 5.2H11.4c1.4-1.3 2.3-3 2.6-5.2z"/><path class="xs" style="fill:none;stroke:var(--xcp-detail);stroke-width:.8;stroke-linecap:round" d="M12.6 30.8h19.8"/><path class="xb" d="M14 33.4h17l1.2 3.2H12.8z"/><path class="xb" d="M10.8 38.4h23.4l2 3.8H8.8z"/></g></svg>